<?xml version="1.0" encoding="iso-8859-1"?>
<!-- Generator: Adobe Illustrator 18.0.0, SVG Export Plug-In . SVG Version: 6.00 Build 0)  -->
<!DOCTYPE svg PUBLIC "-//W3C//DTD SVG 1.1//EN" "http://www.w3.org/Graphics/SVG/1.1/DTD/svg11.dtd">
<svg version="1.1" id="Capa_1" xmlns="http://www.w3.org/2000/svg" xmlns:xlink="http://www.w3.org/1999/xlink" x="0px" y="0px"
	 viewBox="0 0 490.875 490.875" style="enable-background:new 0 0 490.875 490.875;" xml:space="preserve">
<path d="M196.802,34.737C119.192,79.113,88.373,153.435,77.627,217.806c-20.596-9.679-45.042-5.876-45.042-5.876
	c16.791,4.93,37.573,19.19,37.573,19.19c-42.39,10.533-65.552,0-65.552,0c19.996,16.923,61.56,18.253,61.56,18.253
	c-51.179,3.991-61.56,36.786-61.56,36.786c18.825-26.311,52.818-22.544,64.147-20.445c-0.038,0.084-0.084,0.169-0.113,0.253
	c-24.183,57.953-26.012,148.307,30.51,224.906C90.369,470.158-17.824,251.866,250.886,110.97
	c-105.881,75.39-130.785,121.108-146.434,169.895c0,0,25.674,11.685,28.878,39.673c0,0,1.921-28.015-22.966-49.125l0.01-0.01
	c0.292,0.196,24.689,17.136,48.536,14.757c0,0-33.563-4.797-36.767-20.792c0,0,9.595,0.796,20.782,0c0,0-15.939-0.468-20.37-11.019
	c24.165-30.331,60.173-58.01,112.083-62.489c149.6-12.892,218.714,30.799,248.847-68.54
	C509.176,38.57,352.549-50.952,196.802,34.737z"/>
<g>
</g>
<g>
</g>
<g>
</g>
<g>
</g>
<g>
</g>
<g>
</g>
<g>
</g>
<g>
</g>
<g>
</g>
<g>
</g>
<g>
</g>
<g>
</g>
<g>
</g>
<g>
</g>
<g>
</g>
</svg>
