<?xml version="1.0" encoding="iso-8859-1"?>
<!-- Generator: Adobe Illustrator 18.0.0, SVG Export Plug-In . SVG Version: 6.00 Build 0)  -->
<!DOCTYPE svg PUBLIC "-//W3C//DTD SVG 1.1//EN" "http://www.w3.org/Graphics/SVG/1.1/DTD/svg11.dtd">
<svg version="1.1" id="Capa_1" xmlns="http://www.w3.org/2000/svg" xmlns:xlink="http://www.w3.org/1999/xlink" x="0px" y="0px"
	 viewBox="0 0 488.929 488.929" style="enable-background:new 0 0 488.929 488.929;" xml:space="preserve">
<g>
	<path d="M436.246,426.438c-8.058,11.935-18.773,17.861-24.049,20.166c6.239,5.45,12.552,10.792,18.89,16.1
		C435.423,452.834,437.053,440.554,436.246,426.438z"/>
	<path d="M391.694,462.324c-122.516-111.568-217.796-253.08-256.925-337.076c79.065,111.962,173.382,230.059,275.921,320.07
		c2.215-3.193,4.263-6.362,6.149-9.505c12.032-20.009,14.436-44.463,6.485-66.439l0,0c0.165,28.092-20.026,43.359-20.026,43.359
		c1.893-6.61,3.301-12.98,4.305-19.078c5.268-31.977-0.757-64.785-17.037-92.795c-0.28,31.17-24.24,45.936-24.24,45.936
		c13.514-34.636,8.197-73.757-13.984-103.593c-8.486-11.415-17.548-22.832-27.187-34.174
		c-28.083-33.048-63.287-64.728-98.968-93.026c-0.231,14.601-5.622,32.685-20.832,54.488c0,0,0.937-2.073,2.156-5.925
		c9.802-30.973-1.465-64.694-27.886-83.592C111.425,32.206,52.484,0,52.484,0s12.948,140.179,64.103,254.982
		c14.247,31.96,47.738,50.909,82.463,46.578c5.359-0.666,8.347-1.482,8.347-1.482c-26.158,12.553-45.962,14.166-60.885,10.98
		c7.006,10.906,14.47,21.236,22.495,30.684c9.639,11.343,19.449,22.124,29.351,32.348c25.813,26.65,63.707,38.231,99.997,30.479l0,0
		c0,0-18.446,21.277-49.271,16.518c24.914,20.52,56.183,31.755,88.457,31.78c6.304,0.008,12.946-0.354,19.909-1.168
		c0,0-18.322,17.465-46.019,12.774c0.083,0.04,0.165,0.089,0.239,0.132c20.322,11.301,44.643,12.873,66.259,4.312
		c4.337-1.719,8.774-3.687,13.292-5.942c0,0-7.629,15.186-25.54,23.449c19.903,4.428,36.751,3.07,49.196-4.749
		C407.092,475.297,399.323,468.91,391.694,462.324z"/>
</g>
<g>
</g>
<g>
</g>
<g>
</g>
<g>
</g>
<g>
</g>
<g>
</g>
<g>
</g>
<g>
</g>
<g>
</g>
<g>
</g>
<g>
</g>
<g>
</g>
<g>
</g>
<g>
</g>
<g>
</g>
</svg>
